<?xml version="1.0" standalone="no"?>
<!DOCTYPE svg PUBLIC "-//W3C//DTD SVG 20010904//EN"
 "http://www.w3.org/TR/2001/REC-SVG-20010904/DTD/svg10.dtd">
<svg version="1.0" xmlns="http://www.w3.org/2000/svg"
 width="700.000000pt" height="700.000000pt" viewBox="0 0 700.000000 700.000000"
 preserveAspectRatio="xMidYMid meet">
<metadata>
Created by potrace 1.14, written by Peter Selinger 2001-2017
</metadata>
<g transform="translate(0.000000,700.000000) scale(0.100000,-0.100000)"
fill="#000000" stroke="none">
<path d="M3378 6535 c-2 -1 -43 -5 -93 -9 -49 -4 -101 -8 -115 -10 -14 -2 -50
-6 -80 -10 -532 -69 -1120 -346 -1529 -721 -125 -115 -253 -252 -336 -359 -16
-22 -39 -51 -51 -65 -42 -53 -152 -222 -206 -316 -37 -66 -148 -290 -148 -300
0 -4 -7 -21 -15 -38 -28 -61 -113 -320 -122 -372 -2 -11 -8 -37 -14 -57 -15
-56 -48 -242 -55 -311 -6 -61 -11 -92 -14 -92 0 0 -3 -54 -5 -120 -2 -66 -4
-125 -5 -130 -2 -6 -1 -12 0 -15 6 -15 4 -73 -3 -77 -4 -2 -4 -9 0 -16 11 -17
10 -57 -2 -57 -7 0 -7 -3 0 -8 16 -10 18 -72 4 -89 -10 -11 -10 -13 1 -11 17
4 20 -22 6 -41 -8 -11 -8 -13 0 -8 8 4 14 -16 18 -61 4 -37 9 -80 11 -97 2
-16 13 -72 24 -124 11 -51 18 -97 15 -102 -3 -5 -1 -9 4 -9 12 0 35 -107 26
-121 -4 -7 -3 -9 4 -5 10 6 25 -22 21 -40 -1 -5 3 -22 9 -37 7 -15 11 -31 10
-35 -1 -4 6 -22 16 -40 14 -27 15 -36 5 -48 -9 -12 -9 -13 2 -9 10 4 21 -14
38 -57 13 -34 24 -68 24 -75 0 -7 5 -13 10 -13 5 0 6 -8 3 -17 -4 -10 -4 -14
0 -10 4 4 24 -28 45 -71 34 -70 35 -78 20 -91 -14 -12 -14 -12 5 -7 23 7 40
-16 27 -36 -3 -7 -1 -8 5 -4 12 7 65 -86 57 -98 -3 -3 -2 -4 2 -1 5 4 43 -48
82 -116 23 -39 103 -149 140 -191 29 -33 32 -41 20 -50 -11 -8 -11 -9 3 -5 11
4 28 -8 53 -38 20 -25 43 -51 51 -60 12 -11 13 -19 5 -29 -8 -9 -7 -13 4 -13
8 0 12 4 9 9 -3 4 -1 8 3 8 10 0 38 -42 35 -52 -1 -5 3 -7 9 -5 6 1 22 -14 37
-32 15 -19 22 -32 16 -28 -7 4 -14 0 -18 -8 -3 -8 0 -15 7 -15 8 0 6 -4 -3
-10 -9 -6 -11 -10 -3 -10 7 0 10 -7 6 -17 -4 -10 -2 -14 4 -10 6 4 14 0 17 -9
3 -8 10 -12 16 -9 6 4 7 -1 3 -12 -3 -10 -3 -15 1 -11 9 7 36 -13 30 -23 -2
-3 13 -6 32 -7 25 -1 33 2 27 11 -4 7 2 5 12 -3 13 -11 17 -11 11 -2 -6 10 -3
13 10 10 11 -2 18 -10 16 -17 -1 -7 2 -10 7 -7 12 8 33 -18 23 -29 -4 -5 -2
-5 4 -2 13 7 120 -71 116 -85 -1 -5 1 -7 6 -4 15 9 107 -64 104 -82 -2 -13 -1
-14 6 -4 7 11 20 7 61 -18 28 -17 51 -37 51 -43 0 -5 3 -7 7 -4 3 4 21 -3 40
-14 19 -12 52 -30 74 -41 22 -10 37 -23 34 -28 -3 -6 0 -8 7 -5 15 5 171 -69
162 -77 -3 -3 1 -5 8 -5 25 3 198 -65 191 -76 -3 -6 -1 -7 5 -3 7 4 53 -6 104
-23 51 -16 110 -32 130 -36 23 -4 35 -11 31 -18 -3 -6 -1 -7 6 -3 6 4 42 0 80
-8 38 -9 86 -18 108 -21 21 -3 43 -8 50 -10 11 -4 144 -18 171 -18 6 0 12 -4
12 -8 0 -4 16 -5 36 -2 27 4 34 2 29 -8 -6 -8 -4 -10 4 -5 7 5 72 7 144 6 73
-1 148 -2 167 -2 19 -1 50 3 69 7 30 6 33 5 27 -11 -5 -17 -5 -17 6 -3 8 9 28
15 53 14 22 0 45 3 50 7 6 3 37 8 71 10 33 3 65 8 72 12 7 4 12 2 12 -3 0 -6
5 -11 11 -11 5 0 7 4 4 10 -5 9 27 14 73 13 6 -1 12 4 12 10 0 6 3 8 6 5 3 -3
27 0 55 7 36 10 49 10 49 2 0 -7 4 -6 9 2 5 8 25 15 44 15 19 1 33 4 32 7 -6
9 145 50 157 43 7 -5 8 -2 3 6 -6 10 -1 12 18 8 15 -3 25 -2 22 1 -2 4 24 17
58 30 72 26 89 33 137 54 19 9 38 13 42 11 4 -3 8 -1 8 4 0 13 70 43 82 36 6
-4 8 -3 5 3 -4 6 12 19 35 29 24 10 83 43 133 72 49 30 94 54 100 55 5 1 15 9
22 17 7 8 13 11 13 6 0 -6 7 -1 15 10 8 10 15 16 15 12 0 -4 10 2 23 13 46 43
130 98 140 92 6 -3 7 -1 4 4 -4 6 3 18 16 26 12 8 36 27 52 41 17 14 35 24 42
22 7 -3 10 1 7 7 -5 13 54 64 68 59 5 -1 7 2 5 6 -3 11 153 168 164 165 5 -2
8 1 6 5 -4 15 53 73 64 66 8 -5 9 -3 5 5 -10 15 23 53 37 44 5 -3 7 -2 4 4 -3
5 28 54 69 109 42 54 82 112 90 127 9 17 20 25 27 21 7 -4 9 -4 5 1 -11 11 11
47 24 39 6 -4 8 -3 5 3 -9 14 117 235 128 225 5 -4 5 -1 1 5 -4 7 6 39 22 70
17 32 38 77 48 101 12 29 23 41 32 37 13 -5 13 -3 2 11 -11 12 -11 17 -1 23 7
5 11 10 10 12 -6 7 55 178 62 173 4 -2 5 5 2 16 -3 11 0 20 6 20 6 0 8 7 4 17
-5 13 -2 15 12 10 14 -6 15 -5 7 6 -8 9 -5 36 11 97 12 47 25 87 30 88 4 2 5
8 2 12 -3 5 0 30 6 57 15 65 15 70 25 133 4 30 9 58 10 63 1 4 2 21 3 38 1 21
5 28 14 23 9 -5 9 -4 1 5 -7 7 -8 33 -2 74 4 34 8 103 9 154 1 64 5 90 13 86
8 -5 8 -3 0 8 -6 8 -12 64 -13 124 -3 118 -4 124 -15 230 -10 85 -13 111 -21
150 -3 17 -12 64 -20 105 -8 41 -22 102 -30 135 -8 33 -17 67 -19 76 -2 8 -23
71 -45 138 -22 68 -38 128 -34 134 3 5 1 7 -4 4 -6 -4 -18 14 -28 41 -10 26
-33 80 -52 120 -18 39 -32 73 -31 75 2 1 -7 16 -20 34 -12 17 -22 34 -22 37 0
4 -18 36 -40 72 -22 36 -40 68 -40 71 0 11 -152 227 -224 318 -98 124 -320
345 -446 446 -112 90 -257 190 -357 248 -75 43 -287 151 -297 151 -3 0 -29 11
-58 24 -126 57 -441 152 -568 171 -24 4 -47 8 -50 10 -4 3 -44 8 -140 20 -112
14 -177 18 -322 20 -93 1 -169 1 -170 0z"/>
<path d="M6426 3158 c3 -5 10 -6 15 -3 13 9 11 12 -6 12 -8 0 -12 -4 -9 -9z"/>
<path d="M6094 2178 c-4 -7 -4 -10 1 -6 4 4 15 2 24 -5 14 -11 14 -10 2 6 -16
20 -18 21 -27 5z"/>
<path d="M1013 2005 c0 -8 4 -12 9 -9 5 3 6 10 3 15 -9 13 -12 11 -12 -6z"/>
<path d="M5933 1925 c0 -8 4 -12 9 -9 5 3 6 10 3 15 -9 13 -12 11 -12 -6z"/>
<path d="M1076 1922 c-3 -5 1 -9 9 -9 8 0 12 4 9 9 -3 4 -7 8 -9 8 -2 0 -6 -4
-9 -8z"/>
<path d="M1115 1840 c-3 -5 -1 -10 4 -10 6 0 11 5 11 10 0 6 -2 10 -4 10 -3 0
-8 -4 -11 -10z"/>
<path d="M5850 1819 c0 -5 5 -7 10 -4 6 3 10 8 10 11 0 2 -4 4 -10 4 -5 0 -10
-5 -10 -11z"/>
<path d="M1186 1758 c3 -5 10 -6 15 -3 13 9 11 12 -6 12 -8 0 -12 -4 -9 -9z"/>
<path d="M5793 1745 c0 -8 4 -12 9 -9 5 3 6 10 3 15 -9 13 -12 11 -12 -6z"/>
<path d="M1256 1698 c3 -5 10 -6 15 -3 13 9 11 12 -6 12 -8 0 -12 -4 -9 -9z"/>
<path d="M5716 1638 c3 -5 10 -6 15 -3 13 9 11 12 -6 12 -8 0 -12 -4 -9 -9z"/>
<path d="M1356 1567 c3 -10 9 -15 12 -12 3 3 0 11 -7 18 -10 9 -11 8 -5 -6z"/>
<path d="M5615 1511 c-3 -5 -2 -12 3 -15 5 -3 9 1 9 9 0 17 -3 19 -12 6z"/>
<path d="M5455 1380 c-3 -5 -1 -10 4 -10 6 0 11 5 11 10 0 6 -2 10 -4 10 -3 0
-8 -4 -11 -10z"/>
<path d="M5495 1381 c-3 -5 -2 -12 3 -15 5 -3 9 1 9 9 0 17 -3 19 -12 6z"/>
<path d="M5440 1340 c-12 -7 -10 -9 7 -7 12 0 19 5 17 9 -6 10 -6 10 -24 -2z"/>
<path d="M5415 1301 c-3 -5 -2 -12 3 -15 5 -3 9 1 9 9 0 17 -3 19 -12 6z"/>
<path d="M1656 1287 c3 -10 9 -15 12 -12 3 3 0 11 -7 18 -10 9 -11 8 -5 -6z"/>
<path d="M1660 1246 c0 -2 8 -10 18 -17 15 -13 16 -12 3 4 -13 16 -21 21 -21
13z"/>
<path d="M5166 1158 c3 -5 10 -6 15 -3 13 9 11 12 -6 12 -8 0 -12 -4 -9 -9z"/>
<path d="M5133 1105 c0 -8 4 -12 9 -9 5 3 6 10 3 15 -9 13 -12 11 -12 -6z"/>
<path d="M1970 1081 c0 -6 4 -13 10 -16 6 -3 7 1 4 9 -7 18 -14 21 -14 7z"/>
<path d="M1935 1071 c-3 -5 -2 -12 3 -15 5 -3 9 1 9 9 0 17 -3 19 -12 6z"/>
<path d="M1870 1039 c0 -5 5 -7 10 -4 6 3 10 8 10 11 0 2 -4 4 -10 4 -5 0 -10
-5 -10 -11z"/>
<path d="M5015 1020 c3 -5 8 -10 11 -10 2 0 4 5 4 10 0 6 -5 10 -11 10 -5 0
-7 -4 -4 -10z"/>
<path d="M2140 965 c0 -2 6 -8 13 -14 10 -8 14 -7 14 2 0 8 -6 14 -14 14 -7 0
-13 -1 -13 -2z"/>
<path d="M4786 921 c-14 -15 -15 -21 -4 -27 7 -4 10 -3 5 1 -4 5 0 17 10 27 9
10 14 18 11 18 -3 0 -13 -9 -22 -19z"/>
<path d="M2256 898 c3 -4 11 -5 19 -1 21 7 19 12 -4 10 -11 0 -18 -5 -15 -9z"/>
<path d="M4676 887 c3 -10 9 -15 12 -12 3 3 0 11 -7 18 -10 9 -11 8 -5 -6z"/>
<path d="M4730 880 c0 -5 5 -10 11 -10 5 0 7 5 4 10 -3 6 -8 10 -11 10 -2 0
-4 -4 -4 -10z"/>
<path d="M2387 859 c7 -7 15 -10 18 -7 3 3 -2 9 -12 12 -14 6 -15 5 -6 -5z"/>
<path d="M4639 833 c-13 -16 -12 -17 4 -4 16 13 21 21 13 21 -2 0 -10 -8 -17
-17z"/>
<path d="M2395 830 c-4 -6 -11 -7 -17 -4 -7 4 -8 2 -4 -5 6 -9 11 -9 22 0 14
11 18 19 10 19 -3 0 -8 -5 -11 -10z"/>
<path d="M2627 779 c7 -7 15 -10 18 -7 3 3 -2 9 -12 12 -14 6 -15 5 -6 -5z"/>
<path d="M4360 780 c-9 -6 -10 -10 -3 -10 6 0 15 5 18 10 8 12 4 12 -15 0z"/>
<path d="M2553 765 c0 -8 4 -12 9 -9 5 3 6 10 3 15 -9 13 -12 11 -12 -6z"/>
<path d="M2674 754 c1 -8 4 -15 7 -16 2 -2 3 -1 2 1 -2 2 2 9 7 16 7 8 5 12
-4 12 -8 0 -13 -6 -12 -13z"/>
<path d="M2730 699 c0 -5 5 -7 10 -4 6 3 10 8 10 11 0 2 -4 4 -10 4 -5 0 -10
-5 -10 -11z"/>
<path d="M4110 700 c0 -5 5 -10 11 -10 5 0 7 5 4 10 -3 6 -8 10 -11 10 -2 0
-4 -4 -4 -10z"/>
<path d="M4140 706 c0 -2 8 -10 18 -17 15 -13 16 -12 3 4 -13 16 -21 21 -21
13z"/>
<path d="M2993 686 c0 -15 22 -15 34 0 4 5 4 6 -1 2 -5 -4 -14 -3 -21 2 -8 7
-12 5 -12 -4z"/>
<path d="M4055 689 c-4 -6 -5 -12 -2 -15 2 -3 7 2 10 11 7 17 1 20 -8 4z"/>
<path d="M4006 678 c3 -5 10 -6 15 -3 13 9 11 12 -6 12 -8 0 -12 -4 -9 -9z"/>
<path d="M3113 665 c0 -8 4 -12 9 -9 5 3 6 10 3 15 -9 13 -12 11 -12 -6z"/>
<path d="M3379 658 c-5 -9 -5 -48 -1 -43 6 6 11 45 5 45 -2 0 -4 -1 -4 -2z"/>
<path d="M3544 642 c23 -26 23 -26 23 -7 0 8 -3 13 -5 10 -3 -3 -12 1 -21 7
-10 8 -9 4 3 -10z"/>
<path d="M2870 641 c0 -6 4 -13 10 -16 6 -3 7 1 4 9 -7 18 -14 21 -14 7z"/>
<path d="M3175 640 c3 -5 8 -10 11 -10 2 0 4 5 4 10 0 6 -5 10 -11 10 -5 0 -7
-4 -4 -10z"/>
<path d="M3300 646 c0 -2 8 -10 18 -17 15 -13 16 -12 3 4 -13 16 -21 21 -21
13z"/>
<path d="M3336 638 c3 -5 10 -6 15 -3 13 9 11 12 -6 12 -8 0 -12 -4 -9 -9z"/>
<path d="M3870 639 c0 -5 5 -7 10 -4 6 3 10 8 10 11 0 2 -4 4 -10 4 -5 0 -10
-5 -10 -11z"/>
<path d="M3275 631 c-3 -5 -2 -12 3 -15 5 -3 9 1 9 9 0 17 -3 19 -12 6z"/>
<path d="M3493 625 c0 -8 4 -12 9 -9 5 3 6 10 3 15 -9 13 -12 11 -12 -6z"/>
<path d="M3673 575 c0 -8 4 -12 9 -9 5 3 6 10 3 15 -9 13 -12 11 -12 -6z"/>
</g>
</svg>
